<svg width="15" height="14" viewBox="0 0 15 14" fill="none" xmlns="http://www.w3.org/2000/svg">
<path d="M4.24056 6.91352L1.54456 4.21752C0.483199 5.37454 0.0809986 6.53366 0.074016 6.5574L0 6.77805L0.0733178 6.9987C0.0886796 7.04549 1.6905 11.6659 7.02035 11.6659C7.66904 11.6659 8.25977 11.5947 8.80232 11.4753L6.88489 9.55784C6.1945 9.524 5.54139 9.23454 5.05263 8.74577C4.56387 8.25701 4.2744 7.6039 4.24056 6.91352ZM7.02035 1.8902C5.72507 1.8902 4.66371 2.1723 3.77901 2.58707L1.19194 0L0.204591 0.987346L12.7733 13.5561L13.7607 12.5688L11.4578 10.2659C13.2998 8.90217 13.9569 7.02803 13.9667 6.9987L14.04 6.77805L13.9667 6.5574C13.9513 6.51062 12.3502 1.8902 7.02035 1.8902ZM8.35124 7.1593C8.48182 6.68658 8.37079 6.1545 8.0077 5.79071C7.6446 5.42691 7.11182 5.31658 6.6391 5.44716L5.58611 4.39418C6.01762 4.12882 6.51379 3.98727 7.02035 3.98499C8.56072 3.98499 9.81341 5.23768 9.81341 6.77805C9.81134 7.28452 9.6695 7.78058 9.40353 8.21159L8.35124 7.1593Z" fill="#F4F4F4"/>
</svg>
