<svg width="72" height="40" viewBox="0 0 72 40" fill="none" xmlns="http://www.w3.org/2000/svg">
<g filter="url(#filter0_d_1_351)">
<rect x="10" width="20" height="20" rx="10" fill="url(#paint0_linear_1_351)" shape-rendering="crispEdges"/>
<path d="M21.0345 15C22.0166 15 22.9766 14.7068 23.7932 14.1573C24.6098 13.6079 25.2462 12.827 25.622 11.9134C25.9978 10.9998 26.0962 9.99445 25.9046 9.02455C25.713 8.05465 25.2401 7.16373 24.5456 6.46447C23.8512 5.76521 22.9664 5.289 22.0032 5.09608C21.04 4.90315 20.0416 5.00217 19.1343 5.3806C18.2269 5.75904 17.4514 6.39991 16.9058 7.22215C16.3602 8.0444 16.069 9.01109 16.069 10V12.5833L14.5793 11.0833L14 11.6667L16.4828 14.1667L18.9655 11.6667L18.3862 11.0833L16.8966 12.5833V10C16.8966 9.17591 17.1392 8.37033 17.5939 7.68513C18.0486 6.99992 18.6949 6.46587 19.451 6.1505C20.2071 5.83514 21.0391 5.75263 21.8418 5.9134C22.6444 6.07417 23.3817 6.471 23.9604 7.05372C24.5391 7.63644 24.9332 8.37887 25.0929 9.18713C25.2526 9.99538 25.1706 10.8332 24.8574 11.5945C24.5442 12.3559 24.0139 13.0066 23.3334 13.4645C22.6529 13.9223 21.8529 14.1667 21.0345 14.1667V15Z" fill="#F4F4F4"/>
</g>
<path d="M38.7585 14V5.27273H42.2017C42.8608 5.27273 43.4233 5.39062 43.8892 5.62642C44.358 5.85937 44.7145 6.19034 44.9588 6.61932C45.206 7.04545 45.3295 7.54687 45.3295 8.12358C45.3295 8.70312 45.2045 9.2017 44.9545 9.61932C44.7045 10.0341 44.3423 10.3523 43.8679 10.5739C43.3963 10.7955 42.8253 10.9062 42.1548 10.9062H39.8494V9.4233H41.8565C42.2088 9.4233 42.5014 9.375 42.7344 9.27841C42.9673 9.18182 43.1406 9.03693 43.2543 8.84375C43.3707 8.65057 43.429 8.41051 43.429 8.12358C43.429 7.83381 43.3707 7.58949 43.2543 7.39062C43.1406 7.19176 42.9659 7.04119 42.7301 6.93892C42.4972 6.83381 42.2031 6.78125 41.848 6.78125H40.6037V14H38.7585ZM43.4716 10.0284L45.6406 14H43.6037L41.4815 10.0284H43.4716ZM49.4769 14.1278C48.8036 14.1278 48.2241 13.9915 47.7383 13.7188C47.2553 13.4432 46.8832 13.054 46.6218 12.5511C46.3604 12.0455 46.2298 11.4474 46.2298 10.7571C46.2298 10.0838 46.3604 9.4929 46.6218 8.98438C46.8832 8.47585 47.2511 8.07955 47.7255 7.79545C48.2028 7.51136 48.7624 7.36932 49.4045 7.36932C49.8363 7.36932 50.2383 7.43892 50.6104 7.57812C50.9854 7.71449 51.3121 7.92045 51.5906 8.19602C51.8718 8.47159 52.0906 8.81818 52.2468 9.2358C52.4031 9.65057 52.4812 10.1364 52.4812 10.6932V11.1918H46.9542V10.0668H50.7724C50.7724 9.8054 50.7156 9.57386 50.6019 9.37216C50.4883 9.17045 50.3306 9.01278 50.1289 8.89915C49.93 8.78267 49.6985 8.72443 49.4343 8.72443C49.1587 8.72443 48.9144 8.78835 48.7013 8.91619C48.4911 9.04119 48.3263 9.21023 48.207 9.4233C48.0877 9.63352 48.0266 9.8679 48.0238 10.1264V11.196C48.0238 11.5199 48.0835 11.7997 48.2028 12.0355C48.3249 12.2713 48.4968 12.4531 48.7184 12.581C48.94 12.7088 49.2028 12.7727 49.5067 12.7727C49.7085 12.7727 49.8931 12.7443 50.0607 12.6875C50.2283 12.6307 50.3718 12.5455 50.4911 12.4318C50.6104 12.3182 50.7013 12.179 50.7638 12.0142L52.4428 12.125C52.3576 12.5284 52.1829 12.8807 51.9187 13.1818C51.6573 13.4801 51.3192 13.7131 50.9045 13.8807C50.4925 14.0455 50.0167 14.1278 49.4769 14.1278ZM59.1119 9.32102L57.4499 9.4233C57.4215 9.28125 57.3604 9.15341 57.2667 9.03977C57.1729 8.9233 57.0494 8.83097 56.896 8.76278C56.7454 8.69176 56.565 8.65625 56.3548 8.65625C56.0735 8.65625 55.8363 8.71591 55.6431 8.83523C55.4499 8.9517 55.3533 9.10795 55.3533 9.30398C55.3533 9.46023 55.4158 9.59233 55.5408 9.70028C55.6658 9.80824 55.8803 9.89489 56.1843 9.96023L57.369 10.1989C58.0053 10.3295 58.4798 10.5398 58.7923 10.8295C59.1048 11.1193 59.261 11.5 59.261 11.9716C59.261 12.4006 59.1346 12.777 58.8817 13.1009C58.6317 13.4247 58.288 13.6776 57.8505 13.8594C57.4158 14.0384 56.9144 14.1278 56.3462 14.1278C55.4798 14.1278 54.7894 13.9474 54.2752 13.5866C53.7638 13.223 53.4641 12.7287 53.3761 12.1037L55.1616 12.0099C55.2156 12.2741 55.3462 12.4759 55.5536 12.6151C55.761 12.7514 56.0266 12.8196 56.3505 12.8196C56.6687 12.8196 56.9244 12.7585 57.1175 12.6364C57.3136 12.5114 57.413 12.3509 57.4158 12.1548C57.413 11.9901 57.3434 11.8551 57.207 11.75C57.0707 11.642 56.8604 11.5597 56.5763 11.5028L55.4428 11.277C54.8036 11.1491 54.3278 10.9276 54.0153 10.6122C53.7056 10.2969 53.5508 9.89489 53.5508 9.40625C53.5508 8.9858 53.6644 8.62358 53.8917 8.3196C54.1218 8.01562 54.4442 7.78125 54.859 7.61648C55.2766 7.4517 55.7653 7.36932 56.3249 7.36932C57.1516 7.36932 57.8022 7.54403 58.2766 7.89347C58.7539 8.2429 59.0323 8.71875 59.1119 9.32102ZM63.3871 14.1278C62.7138 14.1278 62.1342 13.9915 61.6484 13.7188C61.1655 13.4432 60.7933 13.054 60.532 12.5511C60.2706 12.0455 60.1399 11.4474 60.1399 10.7571C60.1399 10.0838 60.2706 9.4929 60.532 8.98438C60.7933 8.47585 61.1612 8.07955 61.6357 7.79545C62.1129 7.51136 62.6726 7.36932 63.3146 7.36932C63.7464 7.36932 64.1484 7.43892 64.5206 7.57812C64.8956 7.71449 65.2223 7.92045 65.5007 8.19602C65.782 8.47159 66.0007 8.81818 66.157 9.2358C66.3132 9.65057 66.3913 10.1364 66.3913 10.6932V11.1918H60.8643V10.0668H64.6825C64.6825 9.8054 64.6257 9.57386 64.5121 9.37216C64.3984 9.17045 64.2408 9.01278 64.0391 8.89915C63.8402 8.78267 63.6087 8.72443 63.3445 8.72443C63.0689 8.72443 62.8246 8.78835 62.6115 8.91619C62.4013 9.04119 62.2365 9.21023 62.1172 9.4233C61.9979 9.63352 61.9368 9.8679 61.9339 10.1264V11.196C61.9339 11.5199 61.9936 11.7997 62.1129 12.0355C62.2351 12.2713 62.407 12.4531 62.6286 12.581C62.8501 12.7088 63.1129 12.7727 63.4169 12.7727C63.6186 12.7727 63.8033 12.7443 63.9709 12.6875C64.1385 12.6307 64.282 12.5455 64.4013 12.4318C64.5206 12.3182 64.6115 12.179 64.674 12.0142L66.353 12.125C66.2678 12.5284 66.093 12.8807 65.8288 13.1818C65.5675 13.4801 65.2294 13.7131 64.8146 13.8807C64.4027 14.0455 63.9268 14.1278 63.3871 14.1278ZM71.0575 7.45455V8.81818H67.1158V7.45455H71.0575ZM68.0107 5.88636H69.826V11.9886C69.826 12.1562 69.8516 12.2869 69.9027 12.3807C69.9538 12.4716 70.0249 12.5355 70.1158 12.5724C70.2095 12.6094 70.3175 12.6278 70.4396 12.6278C70.5249 12.6278 70.6101 12.6207 70.6953 12.6065C70.7805 12.5895 70.8459 12.5767 70.8913 12.5682L71.1768 13.919C71.0859 13.9474 70.9581 13.9801 70.7933 14.017C70.6286 14.0568 70.4283 14.081 70.1925 14.0895C69.755 14.1065 69.3714 14.0483 69.0419 13.9148C68.7152 13.7812 68.4609 13.5739 68.2791 13.2926C68.0973 13.0114 68.0078 12.6562 68.0107 12.2273V5.88636Z" fill="#F7CD98"/>
<defs>
<filter id="filter0_d_1_351" x="0" y="0" width="40" height="40" filterUnits="userSpaceOnUse" color-interpolation-filters="sRGB">
<feFlood flood-opacity="0" result="BackgroundImageFix"/>
<feColorMatrix in="SourceAlpha" type="matrix" values="0 0 0 0 0 0 0 0 0 0 0 0 0 0 0 0 0 0 127 0" result="hardAlpha"/>
<feOffset dy="10"/>
<feGaussianBlur stdDeviation="5"/>
<feComposite in2="hardAlpha" operator="out"/>
<feColorMatrix type="matrix" values="0 0 0 0 0 0 0 0 0 0 0 0 0 0 0 0 0 0 0.2 0"/>
<feBlend mode="normal" in2="BackgroundImageFix" result="effect1_dropShadow_1_351"/>
<feBlend mode="normal" in="SourceGraphic" in2="effect1_dropShadow_1_351" result="shape"/>
</filter>
<linearGradient id="paint0_linear_1_351" x1="10" y1="17.1642" x2="31.5692" y2="15.4658" gradientUnits="userSpaceOnUse">
<stop stop-color="#EB5A52"/>
<stop offset="1" stop-color="#F7CD98"/>
</linearGradient>
</defs>
</svg>
