<svg width="14" height="10" viewBox="0 0 14 10" fill="none" xmlns="http://www.w3.org/2000/svg">
<path d="M6.9988 6.79655C8.02976 6.79655 8.86552 5.9851 8.86552 4.98412C8.86552 3.98314 8.02976 3.17169 6.9988 3.17169C5.96784 3.17169 5.13208 3.98314 5.13208 4.98412C5.13208 5.9851 5.96784 6.79655 6.9988 6.79655Z" fill="#F7CD98"/>
<path d="M13.9722 4.83012C13.4233 3.45161 12.4704 2.25947 11.2313 1.40105C9.99217 0.542621 8.52114 0.0555387 7 0C5.47886 0.0555387 4.00783 0.542621 2.76871 1.40105C1.52959 2.25947 0.576693 3.45161 0.0278023 4.83012C-0.00926742 4.92967 -0.00926742 5.03868 0.0278023 5.13823C0.576693 6.51675 1.52959 7.70888 2.76871 8.56731C4.00783 9.42573 5.47886 9.91282 7 9.96836C8.52114 9.91282 9.99217 9.42573 11.2313 8.56731C12.4704 7.70888 13.4233 6.51675 13.9722 5.13823C14.0093 5.03868 14.0093 4.92967 13.9722 4.83012ZM7 7.92937C6.40005 7.92937 5.81357 7.75664 5.31472 7.43302C4.81588 7.1094 4.42708 6.64942 4.19749 6.11126C3.96789 5.57309 3.90782 4.98091 4.02487 4.4096C4.14191 3.83829 4.43082 3.3135 4.85505 2.90161C5.27928 2.48972 5.81978 2.20921 6.40821 2.09557C6.99663 1.98193 7.60655 2.04026 8.16084 2.26317C8.71512 2.48609 9.18888 2.86358 9.5222 3.34791C9.85551 3.83225 10.0334 4.40167 10.0334 4.98418C10.0322 5.76492 9.7122 6.51335 9.14359 7.06542C8.57498 7.61749 7.80413 7.92817 7 7.92937Z" fill="#F7CD98"/>
</svg>
